PathFileType	4	(X/Y/Z)	Patient4_TMGait_0pt7_02_right_16.trc.trc
DataRate	CameraRate	NumFrames	NumMarkers	Units	OrigDataRate	OrigDataStartFrame	OrigNumFrames
85.365853658537	85.365853658537	4	33	mm	85.365853658537	36	       141
Frame#	Time	Sacral			L.Shoulder			Chest			R.Shoulder			Neck			R.ASIS			L.ASIS			R.Thigh.Superior			R.Thigh.Lateral			R.Thigh.Inferior			R.Patella			L.Thigh.Superior			L.Thigh.Lateral			L.Thigh.Inferior			L.Patella			L.Shank.Superior			L.Shank.Lateral			L.Shank.Inferior			R.Shank.Superior			R.Shank.Lateral			R.Shank.Inferior			R.Heel			R.Midfoot.Superior			R.Midfoot.Lateral			R.Toe			L.Heel			L.Midfoot.Lateral			L.Midfoot.Superior			L.Toe			L.Elbow			L.Wrist			R.Elbow			R.Wrist			
		X1	Y1	Z1	X2	Y2	Z2	X3	Y3	Z3	X4	Y4	Z4	X5	Y5	Z5	X6	Y6	Z6	X7	Y7	Z7	X8	Y8	Z8	X9	Y9	Z9	X10	Y10	Z10	X11	Y11	Z11	X12	Y12	Z12	X13	Y13	Z13	X14	Y14	Z14	X15	Y15	Z15	X16	Y16	Z16	X17	Y17	Z17	X18	Y18	Z18	X19	Y19	Z19	X20	Y20	Z20	X21	Y21	Z21	X22	Y22	Z22	X23	Y23	Z23	X24	Y24	Z24	X25	Y25	Z25	X26	Y26	Z26	X27	Y27	Z27	X28	Y28	Z28	X29	Y29	Z29	X30	Y30	Z30	X31	Y31	Z31	X32	Y32	Z32	X33	Y33	Z33	

36	17.880000000000	808.863247765301	1004.694278730295	493.011766516054	997.689047019283	1428.171903029093	305.880951656935	1101.778441537760	1352.891651645759	464.912716876775	1024.251590022479	1431.727567935484	639.113762221852	1002.711033033343	1487.970716003634	459.950931509024	1040.277396885663	932.501206592582	601.205126713359	1017.522610469992	959.661646180263	326.454321171294	1102.922472418567	750.934049696131	570.357648000914	1036.547320146518	632.731697881556	631.307396085476	1122.043785473933	591.161806818045	552.435643959233	1135.782510844014	501.789328994845	560.283631181031	1035.670134691632	734.418760392065	342.317351072357	929.290850122235	629.849807700924	284.282392908018	1009.944636446340	536.213173540744	334.198631198631	995.243636229518	453.305881065869	332.148421133095	926.881893864442	399.406814630022	331.340312120431	784.558741316852	353.892869099591	290.716468712106	777.007658672803	225.658034780574	349.693636202523	1113.302548770289	411.195313648160	566.685713669660	1049.090162882574	301.741047648640	627.190152926543	1100.541620718361	210.635173729327	564.425623100004	979.898443181530	42.084987401531	532.071910704560	1151.039058200616	98.367873284739	567.245554468923	1064.042881483425	36.790845526113	605.307489980482	1271.681168737395	47.410873388332	592.033805353036	589.923543361196	151.243680338647	397.199593687510	647.564584427161	103.756454353100	319.132462892111	751.484785703036	122.125624089451	335.807730264874	836.261337955075	31.292407172347	315.709486562290	1002.128405322055	1092.040308828331	162.885102140448	1244.030652825191	1009.862993055025	189.039659575465	891.926185660809	1114.261708243304	757.042737612963	861.636991847594	854.832098311573	767.090645686772	
37	17.891714285714	809.292237392673	1006.206072781136	496.490696220931	997.138485076961	1429.859858678352	308.667340277231	1102.656985654848	1353.955121117971	466.460176435866	1027.077251117342	1432.516206768595	641.537499919964	1003.661218107256	1489.223806522977	462.883307148672	1041.187260767674	933.712185884238	602.805303727455	1016.838067966508	960.848309329827	328.187450506085	1101.309827468406	749.800070610293	573.354587027898	1032.605318935090	632.920165503353	633.218132106147	1117.547221927362	590.316376446008	554.215225042747	1129.856824045715	501.109206104108	561.426723177186	1041.179550481755	737.573586682700	344.322437022072	939.742905146349	629.854695624866	285.341470079663	1023.655139073251	538.262002153151	335.261262655626	1010.199095011538	453.907975941029	332.515363857964	939.609198736898	400.258051848380	331.976083098581	795.643783116360	360.115526266781	291.218402055155	783.163038299319	232.441373366814	350.159504422512	1106.998478086483	410.848980049669	567.879033741440	1042.288914062585	301.592259719144	628.199695839524	1093.165462082682	210.402110488154	565.051300307007	971.838053203155	42.073434820363	532.268528939120	1143.029161500637	98.497348717706	567.509243309927	1055.958908245639	36.776004685513	605.478441820411	1263.624499986761	47.211684406461	592.259761547418	593.394138067586	168.134004988754	397.577700697760	648.111350560921	117.076099937020	319.459831076997	753.149270020643	129.022695059872	335.956552934727	831.517255195620	30.940203508725	315.632882179499	995.272300793229	1092.072119620313	168.467980108117	1232.774594894361	995.027350841092	190.639964442386	901.640337839114	1111.475931572037	760.077062006437	880.774794401029	850.826072359310	767.439337531880	
38	17.903428571429	809.582608232105	1007.583804506813	499.869969542401	996.203101390545	1431.412547183592	311.348870301449	1103.322490160759	1354.849638793309	467.766428049831	1029.878644637162	1433.046219512138	643.841950337503	1004.437583940009	1490.333657967163	465.735841561708	1041.893329607414	934.795682282474	604.228514275492	1015.716779758781	961.741356513225	329.862106766633	1099.359804095559	748.566549700082	576.229638146163	1028.439894812494	633.066292987836	635.092884859045	1112.712056153936	589.434440957114	555.873994303994	1123.590715735293	500.446474068135	562.512493811996	1046.619863954214	741.044884203060	346.376787744847	950.443691571375	630.300000178209	286.260275615658	1037.449203936866	540.960334378457	336.423886768479	1025.453955881114	455.235950643208	333.057577002781	952.925760310836	401.644771860692	332.655686163373	807.606880226355	366.513930983447	291.722326252694	790.481584270516	239.557001038037	350.753115289488	1100.439904003936	410.509349837036	569.007362154809	1035.333088338055	301.413174731741	629.165722362025	1085.695297566764	210.183695479716	565.629912197429	963.729444206236	42.085918753715	532.447801294571	1135.016653163758	98.578670409950	567.720777705157	1047.832328119724	36.750175247466	605.618249981833	1255.541757550958	46.899184646212	592.434094245563	598.586437637353	184.741831715220	398.100024968597	650.495292737429	130.612840902534	319.881606709487	756.313080139182	136.565134118369	336.306874587785	828.565742638983	31.348167239518	315.600285098671	988.519610876581	1092.091294868927	173.956749153441	1220.235388028331	979.563080897479	192.141911892037	911.779924562803	1108.502595272762	763.070086128369	900.782772720168	846.947099910011	767.812240638007	
39	17.915142857143	809.742602625168	1008.831046537527	503.117635568171	994.916127821582	1432.823701358157	313.900231157437	1103.773774769183	1355.583898659265	468.830865281901	1032.618246971536	1433.337493629039	646.006035542223	1005.053706849325	1491.309222563169	468.467208279708	1042.390762164336	935.775170378712	605.516286483380	1014.213440201348	962.361487933566	331.516468386431	1097.123828038701	747.341766348756	578.864213482363	1024.195793543014	633.218233868381	636.921739282001	1107.657368877155	588.565302240097	557.397323847669	1117.110645426267	499.830242233968	563.566883701944	1051.876664103710	744.852041155504	348.496107578188	961.185131887123	631.283739239006	287.042692682591	1051.088955106536	544.366470373736	337.638547054076	1040.783331513824	457.360952452666	333.671795285285	966.640980766680	403.624723378513	333.305527882039	820.233696300826	372.980306788142	292.226524256931	798.951404385106	246.807283604781	351.418031113916	1093.734647734906	410.191534161498	570.080370625390	1028.298519294933	301.238899613346	630.107761238393	1078.176647759239	209.991280944703	566.170196342842	955.573707416029	42.129200708541	532.623908782293	1126.991924461963	98.607263427566	567.900001353464	1039.665350013831	36.723834717453	605.745238914562	1247.431231795966	46.503407080280	592.576510580589	605.464921309504	200.429377527106	398.731740899298	654.835090532447	143.802155784403	320.377337517946	761.126771801519	144.472959718010	336.810489182857	827.850633251589	32.684477406851	315.628784416673	981.898823283161	1092.051234170425	179.327277248686	1206.293673638030	963.674203046542	193.549492872807	922.374496287037	1105.351911572269	765.937604877426	921.577724280944	843.271042684039	768.175712369764	
